<svg xmlns="http://www.w3.org/2000/svg" width="256" height="256" viewBox="0 0 256 256">
<rect width="100%" height="100%" fill="none"/>
<g fill="#D4AF37">
  <!-- simple stylized triple flame -->
  <path d="M128 28 C116 64, 92 84, 92 116 C92 148, 113 165, 128 180 C143 165, 164 148, 164 116 C164 84, 140 64, 128 28 Z"/>
  <path opacity="0.8" d="M128 54 C119 78, 106 91, 106 112 C106 133, 119 144, 128 154 C137 144, 150 133, 150 112 C150 91, 137 78, 128 54 Z"/>
  <path opacity="0.6" d="M128 78 C122 94, 114 101, 114 114 C114 127, 122 133, 128 139 C134 133, 142 127, 142 114 C142 101, 134 94, 128 78 Z"/>
</g>
</svg>